<?xml version="1.0" encoding="UTF-8" standalone="no"?>
<!-- Created with Inkscape (http://www.inkscape.org/) -->

<svg
   xmlns:dc="http://purl.org/dc/elements/1.1/"
   xmlns:cc="http://creativecommons.org/ns#"
   xmlns:rdf="http://www.w3.org/1999/02/22-rdf-syntax-ns#"
   xmlns:svg="http://www.w3.org/2000/svg"
   xmlns="http://www.w3.org/2000/svg"
   xmlns:sodipodi="http://sodipodi.sourceforge.net/DTD/sodipodi-0.dtd"
   xmlns:inkscape="http://www.inkscape.org/namespaces/inkscape"
   name="DiscordWordmark"
   aria-hidden="false"
   width="88"
   height="16"
   viewBox="0 0 88 16"
   version="1.1"
   id="svg875"
   sodipodi:docname="drawing — копия.svg"
   inkscape:version="0.92.4 (5da689c313, 2019-01-14)">
  <metadata
     id="metadata881">
    <rdf:RDF>
      <cc:Work
         rdf:about="">
        <dc:format>image/svg+xml</dc:format>
        <dc:type
           rdf:resource="http://purl.org/dc/dcmitype/StillImage" />
        <dc:title></dc:title>
      </cc:Work>
    </rdf:RDF>
  </metadata>
  <defs
     id="defs879" />
  <sodipodi:namedview
     pagecolor="#ffffff"
     bordercolor="#666666"
     borderopacity="1"
     objecttolerance="10"
     gridtolerance="10"
     guidetolerance="10"
     inkscape:pageopacity="0"
     inkscape:pageshadow="2"
     inkscape:window-width="1920"
     inkscape:window-height="1017"
     id="namedview877"
     showgrid="false"
     inkscape:zoom="11.313709"
     inkscape:cx="48.54935"
     inkscape:cy="-3.9013061"
     inkscape:window-x="1272"
     inkscape:window-y="-8"
     inkscape:window-maximized="1"
     inkscape:current-layer="svg875"
     showguides="false" />
  <path
     d="M 4.5764228,3.1413044 H 1 v 4.0869565 l 2.3806911,2.173913 V 5.4347826 h 1.2819105 c 0.8079269,0 1.2065041,0.4021739 1.2065041,1.0326087 V 9.5 c 0,0.630435 -0.3770325,1.054348 -1.2065041,1.054348 H 1 v 2.304348 h 3.5764228 c 1.9174796,0.01087 3.7164634,-0.956522 3.7164634,-3.1956525 V 6.3913044 c 0,-2.2608696 -1.7989838,-3.25 -3.7164634,-3.25 z M 23.331098,9.673913 V 6.326087 c 0,-1.2065218 2.132926,-1.4891305 2.779268,-0.2717392 L 28.081707,5.2391304 C 27.31687,3.5108696 25.894919,3 24.720732,3 22.803252,3 20.907317,4.1304348 20.907317,6.326087 v 3.347826 c 0,2.206522 1.895935,3.326087 3.770325,3.326087 1.206504,0 2.65,-0.608696 3.447155,-2.184783 l -2.111382,-0.98913 c -0.517074,1.347826 -2.682317,1.021739 -2.682317,-0.152174 z M 16.803049,6.7826087 C 16.059756,6.6195652 15.564228,6.3478261 15.531911,5.8804348 15.575,4.75 17.287805,4.7173913 18.289634,5.7934783 L 19.873171,4.5543478 C 18.882114,3.326087 17.761789,3 16.598374,3 14.84248,3 13.140447,4 13.140447,5.9130435 c 0,1.8586956 1.400407,2.8478261 2.940854,3.0869565 0.786382,0.1086956 1.658943,0.423913 1.637398,0.9782609 -0.06463,1.0434781 -2.176016,0.9891301 -3.134756,-0.1956522 L 13.065041,11.23913 C 13.959146,12.402174 15.176423,13 16.318293,13 18.074187,13 20.023984,11.967391 20.09939,10.086956 20.207114,7.6956522 18.505081,7.0978261 16.803049,6.7826087 Z M 9.5963415,12.858696 H 12.00935 V 3.1413044 H 9.5963415 Z M 50.283537,3.1413044 h -3.576423 v 4.0869565 l 2.380691,2.173913 V 5.4347826 h 1.271138 c 0.807927,0 1.206504,0.4021739 1.206504,1.0326087 V 9.5 c 0,0.630435 -0.377032,1.054348 -1.206504,1.054348 h -3.662601 v 2.304348 h 3.576422 c 1.91748,0.01087 3.716464,-0.956522 3.716464,-3.1956525 V 6.3913044 c 0.01077,-2.2608696 -1.788212,-3.25 -3.705691,-3.25 z M 32.735366,3 c -1.982114,0 -3.953455,1.0978261 -3.953455,3.3369565 v 3.326087 c 0,2.2282605 1.982113,3.3369565 3.975,3.3369565 1.982113,0 3.953455,-1.108696 3.953455,-3.3369565 V 6.3369565 C 36.710366,4.1086956 34.71748,3 32.735366,3 Z m 1.551219,6.6630435 c 0,0.6956525 -0.775609,1.0543475 -1.540447,1.0543475 -0.77561,0 -1.551219,-0.347826 -1.551219,-1.0543475 v -3.326087 c 0,-0.7173913 0.754065,-1.0978261 1.50813,-1.0978261 0.786382,0 1.583536,0.3478261 1.583536,1.0978261 z M 45.360569,6.3369565 C 45.306707,4.0543478 43.777032,3.1413044 41.805691,3.1413044 h -3.824187 v 9.7282606 h 2.445325 V 9.7717391 h 0.430895 l 2.219105,3.0869569 h 3.01626 l -2.60691,-3.3369569 c 1.163415,-0.3695652 1.87439,-1.3804347 1.87439,-3.1847826 z M 41.84878,7.6521739 H 40.426829 V 5.4347826 h 1.421951 c 1.529675,0 1.529675,2.2173913 0,2.2173913 z"
     id="path873"
     inkscape:connector-curvature="0"
     style="display:none;fill:currentColor" />
  <path
     style="color:#000000;font-style:normal;font-variant:normal;font-weight:normal;font-stretch:normal;font-size:13.33333302px;line-height:16.66666603px;font-family:Bahnschrift;-inkscape-font-specification:Bahnschrift;font-variant-ligatures:normal;font-variant-position:normal;font-variant-caps:normal;font-variant-numeric:normal;font-variant-alternates:normal;font-feature-settings:normal;text-indent:0;text-align:start;text-decoration:none;text-decoration-line:none;text-decoration-style:solid;text-decoration-color:#000000;letter-spacing:0.07px;word-spacing:0px;text-transform:none;writing-mode:lr-tb;direction:ltr;text-orientation:mixed;dominant-baseline:auto;baseline-shift:baseline;text-anchor:start;white-space:normal;shape-padding:0;clip-rule:nonzero;display:inline;overflow:visible;visibility:visible;opacity:1;isolation:auto;mix-blend-mode:normal;color-interpolation:sRGB;color-interpolation-filters:linearRGB;solid-color:#000000;solid-opacity:1;vector-effect:none;fill:#000000;fill-opacity:1;fill-rule:nonzero;stroke:none;stroke-width:1;stroke-linecap:butt;stroke-linejoin:miter;stroke-miterlimit:4;stroke-dasharray:none;stroke-dashoffset:0;stroke-opacity:1;color-rendering:auto;image-rendering:auto;shape-rendering:auto;text-rendering:auto;enable-background:accumulate"
     d="M 17.177734 2.6699219 C 16.419144 2.6699219 15.743758 2.7844454 15.162109 3.0351562 C 14.581074 3.2856025 14.107734 3.6731445 13.787109 4.1777344 L 13.785156 4.1777344 C 13.467639 4.6804695 13.318359 5.2833478 13.318359 5.9433594 L 13.318359 5.9492188 C 13.318359 6.6879678 13.47308 7.3231433 13.845703 7.8046875 L 13.845703 7.8066406 L 13.847656 7.8066406 C 14.180378 8.2315032 14.6024 8.5473412 15.089844 8.71875 L 15.09375 8.7207031 L 15.097656 8.7207031 C 15.534264 8.8678211 16.072309 8.9941079 16.722656 9.1054688 C 17.119826 9.1666086 17.522467 9.2876054 17.869141 9.3769531 L 17.873047 9.3769531 L 17.878906 9.3789062 C 18.080063 9.4459583 18.215053 9.5384019 18.322266 9.6621094 L 18.326172 9.6660156 L 18.330078 9.671875 C 18.407298 9.756823 18.460938 9.8730936 18.460938 10.115234 L 18.460938 10.123047 C 18.460938 10.451185 18.373268 10.610323 18.113281 10.787109 L 18.113281 10.789062 C 17.851668 10.962419 17.421451 11.080078 16.798828 11.080078 C 16.342298 11.080078 15.932196 11.010198 15.556641 10.875 C 15.181085 10.7398 14.839757 10.540023 14.523438 10.265625 L 14.132812 9.9277344 L 12.671875 11.724609 L 13.044922 12.041016 C 13.38284 12.32658 13.748167 12.565937 14.136719 12.757812 L 14.138672 12.757812 L 14.138672 12.759766 C 14.532725 12.951987 14.954986 13.094686 15.400391 13.189453 C 15.845442 13.284143 16.311353 13.330078 16.798828 13.330078 C 17.580659 13.330078 18.271685 13.219012 18.865234 12.974609 L 18.867188 12.972656 C 19.462031 12.724805 19.9489 12.349404 20.28125 11.853516 L 20.28125 11.851562 L 20.283203 11.849609 C 20.616038 11.347716 20.775391 10.746048 20.775391 10.089844 L 20.775391 10.076172 C 20.775391 9.3870063 20.629755 8.7875862 20.289062 8.3203125 C 19.984955 7.8941527 19.585785 7.5650847 19.115234 7.3691406 L 19.113281 7.3691406 C 18.512956 7.1308536 17.872587 6.9992959 17.34375 6.8769531 C 16.86466 6.783674 16.495677 6.6944813 16.248047 6.6171875 L 16.246094 6.6171875 C 16.044069 6.5485064 15.890105 6.4534743 15.763672 6.328125 L 15.763672 6.3261719 C 15.683512 6.2436599 15.632814 6.1413557 15.632812 5.9101562 L 15.632812 5.9042969 C 15.632812 5.5565889 15.721572 5.3856648 15.958984 5.2148438 C 16.204104 5.0376487 16.598147 4.9199219 17.177734 4.9199219 C 17.475728 4.9199219 17.770512 4.9730749 18.074219 5.0878906 L 18.078125 5.0898438 L 18.082031 5.0917969 C 18.390496 5.2032903 18.707481 5.3763662 19.035156 5.6171875 L 19.443359 5.9160156 L 20.785156 4.0449219 L 20.378906 3.7519531 C 20.047093 3.5136087 19.705972 3.3158484 19.353516 3.1582031 L 19.347656 3.15625 C 19.001374 2.9954223 18.647082 2.8743627 18.283203 2.7929688 C 17.921238 2.7109233 17.552601 2.6699219 17.177734 2.6699219 z M 25.066406 2.6699219 C 24.336643 2.6699219 23.663327 2.838342 23.082031 3.1816406 C 22.506697 3.5197757 22.048758 4.0111118 21.736328 4.6210938 C 21.422287 5.2342213 21.271484 5.9371383 21.271484 6.7050781 L 21.271484 9.3027344 C 21.271484 10.070674 21.422287 10.771638 21.736328 11.384766 C 22.048758 11.994747 22.506697 12.488037 23.082031 12.826172 C 23.663411 13.164889 24.337073 13.330078 25.066406 13.330078 C 25.675837 13.330078 26.256791 13.197353 26.783203 12.931641 L 26.785156 12.929688 C 27.309523 12.660012 27.756156 12.27391 28.107422 11.789062 C 28.460377 11.301886 28.697531 10.736755 28.818359 10.113281 L 28.933594 9.5175781 L 26.580078 9.5175781 L 26.482422 9.8925781 C 26.416762 10.144845 26.3144 10.345462 26.169922 10.515625 L 26.167969 10.517578 L 26.166016 10.519531 C 26.019736 10.695732 25.858448 10.818581 25.667969 10.904297 L 25.666016 10.904297 C 25.473116 10.992577 25.279294 11.035156 25.066406 11.035156 C 24.758773 11.035156 24.522788 10.967266 24.316406 10.837891 C 24.108398 10.703151 23.951017 10.522952 23.826172 10.259766 C 23.701752 9.9974747 23.632813 9.6849852 23.632812 9.3027344 L 23.632812 6.7050781 C 23.632812 6.3179001 23.701322 6.0057551 23.824219 5.75 L 23.824219 5.7480469 L 23.826172 5.7460938 C 23.951924 5.4809952 24.10996 5.3010186 24.320312 5.1660156 C 24.526418 5.0337397 24.760646 4.9648438 25.066406 4.9648438 C 25.268663 4.9648438 25.458546 5.0079588 25.65625 5.1035156 C 25.850305 5.1973086 26.013752 5.3276908 26.162109 5.5097656 L 26.166016 5.5136719 L 26.169922 5.5175781 C 26.319421 5.6936551 26.422334 5.8881558 26.486328 6.1171875 L 26.587891 6.4824219 L 28.933594 6.4824219 L 28.818359 5.8867188 C 28.697701 5.2641216 28.461508 4.6996022 28.109375 4.2128906 L 28.107422 4.2109375 C 27.760784 3.7263282 27.31697 3.3414452 26.792969 3.0761719 C 26.265477 2.8048902 25.680941 2.6699219 25.066406 2.6699219 z M 33.164062 2.6699219 C 32.432395 2.6699219 31.756415 2.833232 31.171875 3.1699219 L 31.169922 3.171875 C 30.586857 3.5042401 30.122519 3.9917884 29.804688 4.5976562 L 29.802734 4.5976562 C 29.487607 5.202901 29.335938 5.8981337 29.335938 6.6582031 L 29.335938 9.3417969 C 29.335938 10.101866 29.48841 10.797559 29.802734 11.40625 L 29.804688 11.408203 L 29.804688 11.410156 C 30.123006 12.011978 30.586098 12.497904 31.167969 12.833984 L 31.169922 12.833984 L 31.171875 12.835938 C 31.756935 13.168814 32.431973 13.330078 33.164062 13.330078 C 33.896153 13.330078 34.57119 13.168816 35.15625 12.835938 L 35.15625 12.833984 L 35.158203 12.833984 C 35.739796 12.498064 36.201619 12.012124 36.515625 11.410156 C 36.835175 10.801015 36.990234 10.102908 36.990234 9.3417969 L 36.990234 6.6582031 C 36.990234 5.8986186 36.836636 5.2044475 36.517578 4.5996094 L 36.515625 4.5976562 C 36.202064 3.9916725 35.74098 3.5040817 35.158203 3.171875 C 34.572826 2.8337692 33.89725 2.6699219 33.164062 2.6699219 z M 75.466797 2.6699219 C 74.73361 2.6699219 74.058033 2.8337692 73.472656 3.171875 C 72.889591 3.5042401 72.425254 3.9917884 72.107422 4.5976562 C 71.792295 5.2029008 71.640625 5.8981337 71.640625 6.6582031 L 71.640625 9.3417969 C 71.640625 10.101866 71.791145 10.797559 72.105469 11.40625 L 72.107422 11.408203 L 72.107422 11.410156 C 72.425741 12.011978 72.890786 12.497904 73.472656 12.833984 L 73.474609 12.835938 C 74.059669 13.168814 74.734706 13.330078 75.466797 13.330078 C 76.198888 13.330078 76.873924 13.168816 77.458984 12.835938 L 77.460938 12.833984 C 78.042929 12.497834 78.506294 12.012696 78.820312 11.410156 L 78.820312 11.408203 C 79.13928 10.799449 79.292969 10.102225 79.292969 9.3417969 L 79.292969 6.6582031 C 79.292969 5.8986186 79.13937 5.2044475 78.820312 4.5996094 L 78.818359 4.5976562 C 78.504752 3.9916725 78.043715 3.5040817 77.460938 3.171875 C 76.875558 2.8337692 76.199984 2.6699219 75.466797 2.6699219 z M 38.091797 2.7597656 L 38.091797 3.2597656 L 38.091797 13.232422 L 40.419922 13.232422 L 40.419922 9.2285156 L 41.587891 9.2285156 L 43.609375 13.232422 L 46.322266 13.232422 L 44.003906 8.8339844 C 44.008506 8.8314844 44.014911 8.8326081 44.019531 8.8300781 C 44.514434 8.5620067 44.913798 8.1683325 45.1875 7.6777344 L 45.1875 7.6757812 C 45.461914 7.1787291 45.595703 6.607342 45.595703 5.9941406 C 45.595703 5.3831276 45.462949 4.8167983 45.189453 4.3242188 C 44.920618 3.8279048 44.523491 3.4292095 44.027344 3.1601562 L 44.025391 3.1601562 C 43.531821 2.8903663 42.962637 2.7597656 42.347656 2.7597656 L 40.419922 2.7597656 L 38.671875 2.7597656 L 38.091797 2.7597656 z M 1.0234375 2.7675781 L 1.0234375 3.2675781 L 1.0234375 7.25 L 2.1894531 8.3144531 L 3.3515625 9.375 L 3.3515625 5.0292969 L 4.5625 5.0292969 C 5.1743282 5.0292969 5.5680644 5.1800274 5.8398438 5.4394531 L 5.8417969 5.4414062 L 5.84375 5.4433594 C 6.1186976 5.6997712 6.2636719 6.0452874 6.2636719 6.6074219 L 6.2636719 9.3925781 C 6.2636719 9.9547126 6.1186015 10.305152 5.8417969 10.566406 C 5.570581 10.822224 5.1753634 10.970703 4.5625 10.970703 L 3.3515625 10.970703 L 3.3515625 10.544922 L 1.0234375 10.544922 L 1.0234375 13.232422 L 1.921875 13.232422 L 3.3515625 13.232422 L 4.5175781 13.232422 C 5.3345154 13.232422 6.0621564 13.090491 6.6835938 12.785156 C 7.3086618 12.480123 7.8083889 12.014431 8.1386719 11.419922 C 8.4692485 10.824886 8.625 10.123599 8.625 9.3417969 L 8.625 6.6582031 C 8.625 5.8764007 8.4692485 5.175116 8.1386719 4.5800781 C 7.8089176 3.9865204 7.3121642 3.5202164 6.6914062 3.2148438 C 6.0696148 2.9089623 5.3410813 2.7675781 4.5234375 2.7675781 L 3.3515625 2.7675781 L 1.921875 2.7675781 L 1.0234375 2.7675781 z M 9.7128906 2.7675781 L 9.7128906 13.232422 L 12.041016 13.232422 L 12.041016 12.732422 L 12.041016 2.7675781 L 9.7128906 2.7675781 z M 46.859375 2.7675781 L 46.859375 3.2675781 L 46.859375 7.3613281 L 48.025391 8.4257812 L 49.1875 9.4863281 L 49.1875 5.0292969 L 50.400391 5.0292969 C 51.012219 5.0292969 51.404002 5.1800274 51.675781 5.4394531 L 51.677734 5.4414062 L 51.679688 5.4433594 C 51.954633 5.6997712 52.099609 6.0452874 52.099609 6.6074219 L 52.099609 9.3925781 C 52.099609 9.9547126 51.954539 10.305152 51.677734 10.566406 C 51.406512 10.822218 51.013254 10.970703 50.400391 10.970703 L 49.1875 10.970703 L 49.1875 10.65625 L 46.859375 10.65625 L 46.859375 13.232422 L 47.757812 13.232422 L 49.1875 13.232422 L 50.353516 13.232422 C 51.170453 13.232422 51.898094 13.090491 52.519531 12.785156 C 53.144599 12.480123 53.644326 12.014431 53.974609 11.419922 C 54.305186 10.824884 54.460938 10.123599 54.460938 9.3417969 L 54.460938 6.6582031 C 54.460938 5.8764007 54.305186 5.175116 53.974609 4.5800781 C 53.644855 3.9865204 53.148101 3.5202164 52.527344 3.2148438 C 51.905552 2.9089623 51.178972 2.7675781 50.361328 2.7675781 L 49.1875 2.7675781 L 47.757812 2.7675781 L 46.859375 2.7675781 z M 63.328125 2.7675781 L 63.328125 3.2675781 L 63.328125 13.232422 L 64.109375 13.232422 L 65.648438 13.232422 L 67.667969 13.232422 C 68.291172 13.232422 68.864606 13.114223 69.365234 12.861328 C 69.864112 12.609318 70.269565 12.232965 70.542969 11.759766 C 70.816018 11.287181 70.949219 10.739896 70.949219 10.154297 L 70.949219 10.134766 C 70.949219 9.6956093 70.859889 9.2727177 70.681641 8.8847656 C 70.501861 8.4934796 70.232887 8.1570335 69.892578 7.8964844 C 69.880338 7.8869544 69.862019 7.8881843 69.849609 7.8789062 C 69.853909 7.8755963 69.860944 7.8763969 69.865234 7.8730469 C 70.182953 7.6241674 70.433875 7.3114658 70.59375 6.953125 L 70.59375 6.9511719 C 70.747677 6.6008544 70.824219 6.2219965 70.824219 5.8320312 C 70.824219 5.2383097 70.710165 4.6951551 70.460938 4.2285156 C 70.208787 3.7564096 69.812788 3.3816423 69.320312 3.1328125 C 68.819119 2.8795775 68.22731 2.7675781 67.558594 2.7675781 L 65.648438 2.7675781 L 64.109375 2.7675781 L 63.328125 2.7675781 z M 79.222656 2.7675781 L 79.222656 3.2675781 L 79.222656 5.0292969 L 81.898438 5.0292969 L 81.898438 13.232422 L 84.226562 13.232422 L 84.226562 5.0292969 L 86.902344 5.0292969 L 86.902344 2.7675781 L 79.222656 2.7675781 z M 58.710938 2.7734375 L 55.353516 10.019531 L 55.353516 10.128906 L 55.353516 11.78125 L 59.435547 11.78125 L 59.435547 13.240234 L 61.732422 13.240234 L 61.732422 11.78125 L 62.441406 11.78125 L 62.441406 9.5507812 L 61.732422 9.5507812 L 61.732422 6.6660156 L 59.435547 6.6660156 L 59.435547 7.1660156 L 59.435547 9.5507812 L 58.078125 9.5507812 L 61.175781 2.7734375 L 58.710938 2.7734375 z M 33.164062 4.9785156 C 33.478763 4.9785156 33.721988 5.0462416 33.933594 5.1738281 L 33.9375 5.1757812 L 33.941406 5.1777344 C 34.157128 5.3027904 34.31196 5.4682881 34.433594 5.7148438 L 34.435547 5.71875 L 34.4375 5.7226562 C 34.561459 5.96405 34.628906 6.25256 34.628906 6.6132812 L 34.628906 9.3867188 C 34.628906 9.7474399 34.560796 10.03991 34.435547 10.287109 L 34.435547 10.289062 C 34.314493 10.531172 34.157818 10.699761 33.939453 10.830078 C 33.727406 10.954812 33.480613 11.021484 33.164062 11.021484 C 32.849925 11.021484 32.601468 10.956474 32.384766 10.832031 C 32.171504 10.702899 32.012397 10.533166 31.886719 10.291016 L 31.886719 10.289062 C 31.764757 10.041352 31.697266 9.7483907 31.697266 9.3867188 L 31.697266 6.6132812 C 31.697266 6.2516158 31.764136 5.9606631 31.884766 5.71875 L 31.884766 5.7167969 C 32.011423 5.4673767 32.170718 5.3005426 32.382812 5.1757812 L 32.384766 5.1738281 C 32.602173 5.0446439 32.849363 4.9785156 33.164062 4.9785156 z M 75.466797 4.9785156 C 75.781496 4.9785156 76.024722 5.0462416 76.236328 5.1738281 L 76.240234 5.1757812 L 76.244141 5.1777344 C 76.459862 5.3027904 76.614694 5.4682881 76.736328 5.7148438 L 76.738281 5.71875 L 76.740234 5.7226562 C 76.864193 5.96405 76.933594 6.25256 76.933594 6.6132812 L 76.933594 9.3867188 C 76.933594 9.7474399 76.865484 10.03991 76.740234 10.287109 L 76.738281 10.289062 C 76.617227 10.531172 76.460553 10.699761 76.242188 10.830078 C 76.03014 10.954812 75.783348 11.021484 75.466797 11.021484 C 75.152657 11.021484 74.904203 10.956474 74.6875 10.832031 C 74.474238 10.702899 74.315131 10.533166 74.189453 10.291016 L 74.189453 10.289062 C 74.06754 10.041352 74 9.7483907 74 9.3867188 L 74 6.6132812 C 74 6.2508592 74.068347 5.95901 74.189453 5.7167969 C 74.315996 5.468116 74.473834 5.3003184 74.685547 5.1757812 L 74.6875 5.1738281 C 74.904908 5.0446439 75.152098 4.9785156 75.466797 4.9785156 z M 65.648438 4.9980469 L 67.316406 4.9980469 C 67.801649 4.9980469 68.091928 5.1020394 68.244141 5.2304688 C 68.39519 5.3579171 68.484375 5.5349254 68.484375 5.9101562 C 68.484375 6.2685965 68.401045 6.4423258 68.269531 6.5625 L 68.267578 6.5644531 L 68.265625 6.5664062 C 68.138989 6.6842496 67.91228 6.7773437 67.5 6.7773438 L 65.648438 6.7773438 L 65.648438 4.9980469 z M 40.419922 5.0234375 L 42.400391 5.0234375 C 42.577371 5.0234375 42.697162 5.0597705 42.802734 5.1269531 L 42.804688 5.1289062 L 42.806641 5.1308594 C 42.917924 5.2001024 42.997757 5.2868075 43.066406 5.4355469 L 43.068359 5.4414062 L 43.070312 5.4472656 C 43.140732 5.5909169 43.183594 5.7655311 43.183594 5.9941406 C 43.183594 6.2227502 43.142485 6.4026181 43.070312 6.5527344 L 43.068359 6.5546875 L 43.068359 6.5566406 C 43.000449 6.7009556 42.920191 6.7887214 42.806641 6.859375 C 42.693141 6.929997 42.571667 6.9667969 42.400391 6.9667969 L 40.419922 6.9667969 L 40.419922 5.0234375 z M 65.648438 8.9746094 L 67.5 8.9746094 C 67.817062 8.9746094 68.039986 9.0297484 68.183594 9.1054688 L 68.1875 9.1074219 L 68.191406 9.109375 C 68.34375 9.186932 68.423684 9.2714916 68.486328 9.4042969 L 68.488281 9.4082031 L 68.490234 9.4121094 C 68.562554 9.5595354 68.607422 9.7549566 68.607422 10.017578 L 68.607422 10.037109 C 68.607422 10.390927 68.520062 10.573256 68.326172 10.734375 C 68.155568 10.876145 67.78313 11.001953 67.173828 11.001953 L 65.648438 11.001953 L 65.648438 8.9746094 z "
     id="text1428" />
</svg>
